<svg width="345" height="339" viewBox="0 0 345 339" fill="none" xmlns="http://www.w3.org/2000/svg">
<path d="M52.0014 241.627C104.807 242.635 193.046 209.678 191.111 177.883C188.693 138.139 148.295 148.649 150.185 176.872C152.075 205.095 198.196 218.601 215.384 199.869C233.066 180.599 233.936 165.012 235.647 148.12" stroke="#E6D9F5" stroke-width="2.66746" stroke-linecap="round" stroke-dasharray="21.34 21.34"/>
<path d="M226.375 33.6548C212.562 56.9537 199.446 83.6109 185.679 109.782C183.963 113.05 187.117 116.513 190.396 114.94C197.971 111.303 205.646 107.73 213.344 104.181C213.843 103.951 214.218 103.516 214.368 102.991C218.563 88.3095 222.685 73.3968 226.824 59.0783C227.038 58.336 228.186 58.5437 228.112 59.312C226.788 73.2082 225.413 87.6587 224.054 101.888C223.966 102.8 224.557 103.638 225.447 103.871C237.397 106.999 249.364 110.18 260.887 113.513C263.819 114.365 266.283 111.414 265.159 108.454C255.356 82.7776 246.117 56.9411 235.595 34.1216C233.976 30.6276 228.344 30.3496 226.375 33.6548Z" fill="#C6F806"/>
</svg>
